<svg width="36" height="36" viewBox="0 0 36 36" fill="none" xmlns="http://www.w3.org/2000/svg">
<path fill-rule="evenodd" clip-rule="evenodd" d="M7.50001 14.9992C7.50001 14.6602 7.61401 14.3197 7.84801 14.0392C8.37751 13.4032 9.32401 13.3177 9.96001 13.8472L18.0165 20.5612L26.0595 14.0887C26.7045 13.5697 27.6495 13.6717 28.1685 14.3167C28.6875 14.9632 28.5855 15.9067 27.9405 16.4272L18.9405 23.6692C18.384 24.1162 17.589 24.1102 17.04 23.6527L8.04001 16.1527C7.68451 15.8557 7.50001 15.4297 7.50001 14.9992Z" fill="#231F20"/>
<mask id="mask0_177_6548" style="mask-type:luminance" maskUnits="userSpaceOnUse" x="7" y="13" width="22" height="12">
<path fill-rule="evenodd" clip-rule="evenodd" d="M7.50001 14.9992C7.50001 14.6602 7.61401 14.3197 7.84801 14.0392C8.37751 13.4032 9.32401 13.3177 9.96001 13.8472L18.0165 20.5612L26.0595 14.0887C26.7045 13.5697 27.6495 13.6717 28.1685 14.3167C28.6875 14.9632 28.5855 15.9067 27.9405 16.4272L18.9405 23.6692C18.384 24.1162 17.589 24.1102 17.04 23.6527L8.04001 16.1527C7.68451 15.8557 7.50001 15.4297 7.50001 14.9992Z" fill="white"/>
</mask>
<g mask="url(#mask0_177_6548)">
<rect x="36" width="36" height="36" transform="rotate(90 36 0)" fill="#0D1C2E"/>
</g>
</svg>
