<svg width="1546" height="338" viewBox="0 0 1546 338" fill="none" xmlns="http://www.w3.org/2000/svg">
<path d="M142.848 180.56H187.648L168.704 274H134.144L136.192 263.504C123.904 272.891 108.885 277.584 91.136 277.584C76.4587 277.584 63.0613 274.427 50.944 268.112C38.8267 261.627 29.2693 252.496 22.272 240.72C15.2747 228.773 11.776 214.949 11.776 199.248C11.776 178.427 16.5547 159.824 26.112 143.44C35.6693 127.056 49.0667 114.256 66.304 105.04C83.5413 95.824 103.339 91.216 125.696 91.216C142.933 91.216 158.208 94.032 171.52 99.664C185.003 105.296 195.755 113.488 203.776 124.24L167.424 152.912C161.621 145.744 155.221 140.709 148.224 137.808C141.227 134.736 132.949 133.2 123.392 133.2C111.275 133.2 100.608 135.931 91.392 141.392C82.3467 146.683 75.3493 154.021 70.4 163.408C65.4507 172.795 62.976 183.461 62.976 195.408C62.976 208.037 66.4747 218.021 73.472 225.36C80.64 232.699 90.7093 236.368 103.68 236.368C114.432 236.368 124.331 233.296 133.376 227.152L142.848 180.56ZM291.336 212.944C291.336 221.136 289.16 228.219 284.808 234.192C280.456 240.08 274.355 244.389 266.504 247.12L281.736 274H255.24L241.928 250.192H229.128L224.392 274H199.048L216.968 184.4H255.24C266.675 184.4 275.549 186.917 281.864 191.952C288.179 196.987 291.336 203.984 291.336 212.944ZM265.736 215.376C265.736 211.707 264.499 208.976 262.024 207.184C259.549 205.307 256.093 204.368 251.656 204.368H238.344L232.968 230.608H248.072C253.704 230.608 258.056 229.285 261.128 226.64C264.2 223.995 265.736 220.24 265.736 215.376ZM351.27 182.608C362.875 182.608 372.006 185.552 378.662 191.44C385.403 197.328 388.774 205.477 388.774 215.888C388.774 219.557 388.433 223.056 387.75 226.384L378.15 274H352.806L356.774 254.16H321.958L317.99 274H293.03L303.142 223.184C305.787 209.872 311.206 199.803 319.398 192.976C327.675 186.064 338.299 182.608 351.27 182.608ZM360.742 234.576L362.662 224.72C363.174 222.16 363.43 219.856 363.43 217.808C363.43 213.115 362.15 209.573 359.59 207.184C357.115 204.795 353.531 203.6 348.838 203.6C343.206 203.6 338.641 205.179 335.142 208.336C331.729 211.493 329.339 216.571 327.974 223.568L325.798 234.576H360.742ZM413.343 184.4H452.255C461.471 184.4 469.45 185.936 476.191 189.008C482.932 191.995 488.095 196.347 491.679 202.064C495.348 207.696 497.183 214.352 497.183 222.032C497.183 232.443 494.794 241.573 490.015 249.424C485.322 257.275 478.751 263.333 470.303 267.6C461.855 271.867 452.17 274 441.247 274H395.423L413.343 184.4ZM442.015 253.776C448.159 253.776 453.45 252.496 457.887 249.936C462.41 247.291 465.823 243.707 468.127 239.184C470.431 234.576 471.583 229.371 471.583 223.568C471.583 217.509 469.706 212.859 465.951 209.616C462.196 206.288 456.692 204.624 449.439 204.624H434.591L424.863 253.776H442.015ZM602.677 184.4L584.757 274H560.181L561.973 265.296C558.56 268.709 554.72 271.312 550.453 273.104C546.186 274.896 541.664 275.792 536.885 275.792C527.669 275.792 520.416 273.147 515.125 267.856C509.834 262.565 507.189 255.141 507.189 245.584C507.189 242 507.573 238.16 508.341 234.064L518.325 184.4H543.669L533.557 234.576C533.045 236.965 532.789 239.184 532.789 241.232C532.789 245.755 533.941 249.168 536.245 251.472C538.549 253.691 541.92 254.8 546.357 254.8C551.562 254.8 556 253.221 559.669 250.064C563.338 246.821 565.856 241.787 567.221 234.96L577.333 184.4H602.677ZM660.27 182.608C671.875 182.608 681.006 185.552 687.662 191.44C694.403 197.328 697.774 205.477 697.774 215.888C697.774 219.557 697.433 223.056 696.75 226.384L687.15 274H661.806L665.774 254.16H630.958L626.99 274H602.03L612.142 223.184C614.787 209.872 620.206 199.803 628.398 192.976C636.675 186.064 647.299 182.608 660.27 182.608ZM669.742 234.576L671.662 224.72C672.174 222.16 672.43 219.856 672.43 217.808C672.43 213.115 671.15 209.573 668.59 207.184C666.115 204.795 662.531 203.6 657.838 203.6C652.206 203.6 647.641 205.179 644.142 208.336C640.729 211.493 638.339 216.571 636.974 223.568L634.798 234.576H669.742ZM784.837 212.56C777.84 208.549 770.544 205.861 762.949 204.496L749.125 274H723.653L737.733 203.984C728.858 205.264 720.88 207.995 713.797 212.176L707.525 193.488C713.157 189.989 719.984 187.301 728.005 185.424C736.026 183.547 744.09 182.608 752.197 182.608C760.56 182.608 768.496 183.589 776.005 185.552C783.514 187.515 790.128 190.373 795.845 194.128L784.837 212.56ZM842.231 202.448C836.087 202.448 831.394 203.387 828.151 205.264C824.994 207.056 823.415 209.573 823.415 212.816C823.415 216.997 826.999 219.088 834.167 219.088H858.359L854.519 238.416H826.231C822.05 238.416 818.679 239.227 816.119 240.848C813.644 242.384 812.407 244.56 812.407 247.376C812.407 253.093 818.594 255.952 830.967 255.952C836.343 255.952 841.548 255.312 846.583 254.032C851.703 252.667 856.14 250.875 859.895 248.656L865.783 267.088C861.09 269.733 855.287 271.867 848.375 273.488C841.463 275.024 834.38 275.792 827.127 275.792C814.412 275.792 804.471 273.616 797.303 269.264C790.135 264.912 786.551 258.853 786.551 251.088C786.551 245.285 788.215 240.336 791.543 236.24C794.956 232.059 799.564 228.987 805.367 227.024C802.978 225.488 801.143 223.525 799.863 221.136C798.668 218.661 798.071 216.016 798.071 213.2C798.071 207.056 799.948 201.68 803.703 197.072C807.458 192.464 812.791 188.923 819.703 186.448C826.615 183.888 834.679 182.608 843.895 182.608C850.466 182.608 856.524 183.205 862.071 184.4C867.703 185.509 872.396 187.088 876.151 189.136L867.959 207.696C860.62 204.197 852.044 202.448 842.231 202.448Z" fill="white"/>
<g clip-path="url(#clip0_260_7286)">
<path d="M69.1875 56.25H169.813V92.8125H69.1875V56.25Z" fill="#37474F"/>
<path d="M119.5 75.9375C106.156 75.9375 93.3591 77.7154 83.9237 80.8801C74.4883 84.0447 69.1875 88.337 69.1875 92.8125C69.1875 97.288 74.4883 101.58 83.9237 104.745C93.3591 107.91 106.156 109.688 119.5 109.688C132.844 109.687 145.641 107.91 155.076 104.745C164.512 101.58 169.813 97.288 169.813 92.8125C169.813 88.337 164.512 84.0447 155.076 80.8801C145.641 77.7154 132.844 75.9375 119.5 75.9375Z" fill="#37474F"/>
<path d="M116.481 23.0625L41.0125 50.9063C38.3292 52.0313 38.3292 55.125 41.0125 56.25L116.481 84.0937C118.494 84.6562 120.506 84.6562 122.519 84.0937L197.988 56.25C200.671 55.125 200.671 52.0313 197.988 50.9063L122.519 23.0625C120.506 22.2187 118.494 22.2187 116.481 23.0625Z" fill="#78909C"/>
<path d="M183.9 57.3749L116.816 47.8124C115.139 47.5312 113.127 48.6562 112.791 50.0624C112.456 51.4687 113.798 53.1562 115.475 53.4374L179.875 62.4374V104.062C179.875 105.75 181.216 106.875 183.229 106.875C185.241 106.875 186.583 105.75 186.583 104.062V60.1874C186.583 58.7812 185.241 57.6562 183.9 57.3749Z" fill="#37474F"/>
<path d="M183.229 98.4375C181.45 98.4375 179.743 99.0301 178.485 100.085C177.227 101.14 176.521 102.571 176.521 104.062C176.521 105.554 177.227 106.985 178.485 108.04C179.743 109.095 181.45 109.688 183.229 109.688C185.008 109.688 186.714 109.095 187.972 108.04C189.23 106.985 189.937 105.554 189.937 104.062C189.937 102.571 189.23 101.14 187.972 100.085C186.714 99.0301 185.008 98.4375 183.229 98.4375Z" fill="#37474F"/>
<path d="M193.292 112.5C193.292 117.281 183.229 129.375 183.229 129.375C183.229 129.375 173.167 117.281 173.167 112.5C173.167 107.719 177.527 104.062 183.229 104.062C188.931 104.062 193.292 107.719 193.292 112.5Z" fill="#37474F"/>
</g>
<defs>
<clipPath id="clip0_260_7286">
<rect width="161" height="135" fill="white" transform="translate(39)"/>
</clipPath>
</defs>
</svg>
