<svg width="24" height="24" viewBox="0 0 24 24" fill="none" xmlns="http://www.w3.org/2000/svg">
<path fill-rule="evenodd" clip-rule="evenodd" d="M6.99998 20L4.99998 20C4.44998 20 3.99998 19.55 3.99998 19L3.99998 5C3.99998 4.45 4.44998 4 4.99998 4H6.99998C7.54998 4 7.99998 4.45 7.99998 5C7.99998 5.55 7.54998 6 6.99998 6H5.99998L5.99998 18H6.99998C7.54998 18 7.99998 18.45 7.99998 19C7.99998 19.55 7.54998 20 6.99998 20ZM13.6002 16.7996C13.1562 17.1306 12.5312 17.0406 12.2002 16.5996L9.20018 12.5996C8.94018 12.2536 8.93218 11.7796 9.18218 11.4246L11.9962 7.4246C12.1912 7.1476 12.5002 6.9996 12.8152 6.9996C13.0132 6.9996 13.2142 7.0586 13.3892 7.1816C13.8412 7.4996 13.9502 8.1236 13.6322 8.5756L11.9142 11.0176C11.9277 11.0163 11.9403 11.0125 11.9529 11.0087C11.9683 11.0042 11.9837 10.9996 12.0002 10.9996L20.0002 10.9996C20.5522 10.9996 21.0002 11.4476 21.0002 11.9996C21.0002 12.5526 20.5522 12.9996 20.0002 12.9996H12.0002H11.9992L13.8002 15.4006C14.1312 15.8416 14.0422 16.4686 13.6002 16.7996Z" fill="white"/>
<mask id="mask0_240_6830" style="mask-type:luminance" maskUnits="userSpaceOnUse" x="4" y="4" width="18" height="16">
<path fill-rule="evenodd" clip-rule="evenodd" d="M6.99998 20L4.99998 20C4.44998 20 3.99998 19.55 3.99998 19L3.99998 5C3.99998 4.45 4.44998 4 4.99998 4H6.99998C7.54998 4 7.99998 4.45 7.99998 5C7.99998 5.55 7.54998 6 6.99998 6H5.99998L5.99998 18H6.99998C7.54998 18 7.99998 18.45 7.99998 19C7.99998 19.55 7.54998 20 6.99998 20ZM13.6002 16.7996C13.1562 17.1306 12.5312 17.0406 12.2002 16.5996L9.20018 12.5996C8.94018 12.2536 8.93218 11.7796 9.18218 11.4246L11.9962 7.4246C12.1912 7.1476 12.5002 6.9996 12.8152 6.9996C13.0132 6.9996 13.2142 7.0586 13.3892 7.1816C13.8412 7.4996 13.9502 8.1236 13.6322 8.5756L11.9142 11.0176C11.9277 11.0163 11.9403 11.0125 11.9529 11.0087C11.9683 11.0042 11.9837 10.9996 12.0002 10.9996L20.0002 10.9996C20.5522 10.9996 21.0002 11.4476 21.0002 11.9996C21.0002 12.5526 20.5522 12.9996 20.0002 12.9996H12.0002H11.9992L13.8002 15.4006C14.1312 15.8416 14.0422 16.4686 13.6002 16.7996Z" fill="white"/>
</mask>
<g mask="url(#mask0_240_6830)">
<rect x="24" y="24" width="24" height="24" transform="rotate(180 24 24)" fill="white"/>
</g>
</svg>
