<svg width="17" height="16" viewBox="0 0 17 16" fill="none" xmlns="http://www.w3.org/2000/svg">
<path fill-rule="evenodd" clip-rule="evenodd" d="M3.00004 16L1.00004 16C0.450045 16 4.3869e-05 15.55 4.3869e-05 15L4.3869e-05 1C4.3869e-05 0.45 0.450045 0 1.00004 0H3.00004C3.55004 0 4.00004 0.45 4.00004 1C4.00004 1.55 3.55004 2 3.00004 2H2.00004L2.00004 14H3.00004C3.55004 14 4.00004 14.45 4.00004 15C4.00004 15.55 3.55004 16 3.00004 16ZM9.60024 12.7996C9.15624 13.1306 8.53124 13.0406 8.20024 12.5996L5.20024 8.5996C4.94024 8.2536 4.93224 7.7796 5.18224 7.4246L7.99624 3.4246C8.19124 3.1476 8.50024 2.9996 8.81524 2.9996C9.01324 2.9996 9.21424 3.0586 9.38924 3.1816C9.84124 3.4996 9.95024 4.1236 9.63224 4.5756L7.91424 7.0176C7.92771 7.01625 7.94037 7.01249 7.95295 7.00875C7.9684 7.00416 7.98371 6.9996 8.00024 6.9996L16.0002 6.9996C16.5522 6.9996 17.0002 7.4476 17.0002 7.9996C17.0002 8.5526 16.5522 8.9996 16.0002 8.9996H8.00024H7.99924L9.80024 11.4006C10.1312 11.8416 10.0422 12.4686 9.60024 12.7996Z" fill="white"/>
</svg>
