<svg width="14" height="19" viewBox="0 0 14 19" fill="none" xmlns="http://www.w3.org/2000/svg">
<path fill-rule="evenodd" clip-rule="evenodd" d="M9 4.5C9 3.397 8.103 2.5 7 2.5C5.897 2.5 5 3.397 5 4.5C5 5.603 5.897 6.5 7 6.5C8.103 6.5 9 5.603 9 4.5ZM11 4.5C11 6.706 9.206 8.5 7 8.5C4.794 8.5 3 6.706 3 4.5C3 2.294 4.794 0.5 7 0.5C9.206 0.5 11 2.294 11 4.5ZM0 17.5C0 13.64 3.141 10.5 7 10.5C10.859 10.5 14 13.64 14 17.5C14 18.052 13.553 18.5 13 18.5C12.447 18.5 12 18.052 12 17.5C12 14.743 9.757 12.5 7 12.5C4.243 12.5 2 14.743 2 17.5C2 18.052 1.553 18.5 1 18.5C0.447 18.5 0 18.052 0 17.5Z" fill="#4E9FFF"/>
</svg>
