<svg width="18" height="17" viewBox="0 0 18 17" fill="none" xmlns="http://www.w3.org/2000/svg">
<path fill-rule="evenodd" clip-rule="evenodd" d="M15.709 10.7944C15.319 10.4024 14.685 10.4004 14.295 10.7914C13.903 11.1814 13.901 11.8144 14.291 12.2054L14.584 12.5004H13C10.794 12.5004 9 10.7054 9 8.5004C9 6.2944 10.794 4.5004 13 4.5004H14.588L14.295 4.7914C13.903 5.1814 13.901 5.8144 14.291 6.2054C14.486 6.4014 14.743 6.5004 15 6.5004C15.255 6.5004 15.511 6.4024 15.705 6.2084L17.705 4.2174C17.894 4.0304 17.999 3.7764 18 3.5114C18.001 3.2454 17.896 2.9914 17.709 2.8034L15.709 0.794396C15.319 0.402396 14.685 0.400396 14.295 0.791396C13.903 1.1814 13.901 1.8144 14.291 2.2054L14.584 2.5004H13C10.914 2.5004 9.075 3.5704 8 5.1904C6.925 3.5704 5.086 2.5004 3 2.5004H1C0.447 2.5004 0 2.9474 0 3.5004C0 4.0524 0.447 4.5004 1 4.5004H3C5.206 4.5004 7 6.2944 7 8.5004C7 10.7054 5.206 12.5004 3 12.5004H1C0.447 12.5004 0 12.9474 0 13.5004C0 14.0524 0.447 14.5004 1 14.5004H3C5.086 14.5004 6.925 13.4294 8 11.8094C9.075 13.4294 10.914 14.5004 13 14.5004H14.588L14.295 14.7914C13.903 15.1814 13.901 15.8144 14.291 16.2054C14.486 16.4014 14.743 16.5004 15 16.5004C15.255 16.5004 15.511 16.4024 15.705 16.2084L17.705 14.2174C17.894 14.0304 17.999 13.7764 18 13.5114C18.001 13.2454 17.896 12.9914 17.709 12.8034L15.709 10.7944Z" fill="#4E9FFF"/>
</svg>
