<svg width="8" height="8" viewBox="0 0 8 8" fill="none" xmlns="http://www.w3.org/2000/svg">
<path fill-rule="evenodd" clip-rule="evenodd" d="M4.94271 3.99992L7.80471 1.13792C8.06538 0.877256 8.06538 0.455923 7.80471 0.195256C7.54404 -0.0654108 7.12271 -0.0654108 6.86204 0.195256L4.00004 3.05726L1.13804 0.195256C0.877378 -0.0654108 0.456045 -0.0654108 0.195378 0.195256C-0.0652887 0.455923 -0.0652887 0.877256 0.195378 1.13792L3.05738 3.99992L0.195378 6.86192C-0.0652887 7.12259 -0.0652887 7.54392 0.195378 7.80459C0.325378 7.93459 0.496045 7.99992 0.666711 7.99992C0.837378 7.99992 1.00804 7.93459 1.13804 7.80459L4.00004 4.94259L6.86204 7.80459C6.99204 7.93459 7.16271 7.99992 7.33338 7.99992C7.50404 7.99992 7.67471 7.93459 7.80471 7.80459C8.06538 7.54392 8.06538 7.12259 7.80471 6.86192L4.94271 3.99992Z" fill="white"/>
</svg>
