<svg width="420" height="66" viewBox="0 0 420 66" fill="none" xmlns="http://www.w3.org/2000/svg">
<g clip-path="url(#clip0_115_1714)">
<path d="M145.736 35.3257H154.748L150.937 54.1243H143.985L144.397 52.0127C141.925 53.9012 138.904 54.8454 135.334 54.8454C132.381 54.8454 129.686 54.2102 127.248 52.9397C124.811 51.6351 122.888 49.7981 121.481 47.4289C120.073 45.0254 119.369 42.2442 119.369 39.0854C119.369 34.8966 120.33 31.154 122.253 27.8578C124.176 24.5616 126.871 21.9865 130.338 20.1324C133.806 18.2782 137.788 17.3512 142.286 17.3512C145.753 17.3512 148.826 17.9177 151.504 19.0508C154.216 20.1839 156.379 21.832 157.993 23.9951L150.68 29.7634C149.513 28.3213 148.225 27.3084 146.818 26.7247C145.41 26.1067 143.745 25.7977 141.822 25.7977C139.385 25.7977 137.239 26.3471 135.385 27.4458C133.565 28.5102 132.158 29.9865 131.162 31.875C130.167 33.7635 129.669 35.9094 129.669 38.3129C129.669 40.8536 130.373 42.8623 131.78 44.3387C133.222 45.8152 135.248 46.5534 137.857 46.5534C140.02 46.5534 142.011 45.9353 143.831 44.6993L145.736 35.3257ZM175.607 41.8409C175.607 43.4889 175.169 44.9139 174.293 46.1156C173.418 47.3002 172.191 48.1671 170.611 48.7165L173.675 54.1243H168.345L165.668 49.3345H163.093L162.14 54.1243H157.042L160.646 36.0983H168.345C170.646 36.0983 172.431 36.6047 173.701 37.6176C174.972 38.6306 175.607 40.0382 175.607 41.8409ZM170.457 42.3301C170.457 41.592 170.208 41.0426 169.71 40.682C169.212 40.3044 168.517 40.1155 167.624 40.1155H164.947L163.865 45.3946H166.903C168.036 45.3946 168.912 45.1284 169.53 44.5963C170.148 44.0641 170.457 43.3087 170.457 42.3301ZM187.663 35.7378C189.998 35.7378 191.835 36.33 193.174 37.5146C194.53 38.6992 195.208 40.3386 195.208 42.4331C195.208 43.1713 195.139 43.8752 195.002 44.5448L193.071 54.1243H187.972L188.77 50.1328H181.767L180.968 54.1243H175.947L177.982 43.901C178.514 41.2228 179.604 39.1971 181.252 37.8236C182.917 36.433 185.054 35.7378 187.663 35.7378ZM189.569 46.1929L189.955 44.21C190.058 43.695 190.109 43.2314 190.109 42.8194C190.109 41.8753 189.852 41.1627 189.337 40.682C188.839 40.2014 188.118 39.961 187.174 39.961C186.041 39.961 185.123 40.2787 184.419 40.9138C183.732 41.5489 183.251 42.5705 182.977 43.9782L182.539 46.1929H189.569ZM200.15 36.0983H207.978C209.832 36.0983 211.437 36.4073 212.793 37.0253C214.149 37.6263 215.188 38.5018 215.908 39.652C216.647 40.785 217.016 42.1241 217.016 43.6692C217.016 45.7637 216.535 47.6005 215.574 49.18C214.63 50.7595 213.308 51.9783 211.608 52.8367C209.909 53.6952 207.961 54.1243 205.763 54.1243H196.545L200.15 36.0983ZM205.918 50.0556C207.154 50.0556 208.218 49.7981 209.111 49.283C210.021 48.7509 210.707 48.0299 211.171 47.1199C211.634 46.1929 211.866 45.1457 211.866 43.9782C211.866 42.7593 211.488 41.8237 210.733 41.1713C209.978 40.5018 208.87 40.167 207.411 40.167H204.424L202.467 50.0556H205.918ZM238.237 36.0983L234.632 54.1243H229.689L230.049 52.3732C229.363 53.0598 228.59 53.5835 227.732 53.944C226.873 54.3046 225.964 54.4848 225.002 54.4848C223.148 54.4848 221.689 53.9527 220.625 52.8882C219.561 51.8238 219.029 50.3302 219.029 48.4075C219.029 47.6864 219.106 46.9139 219.26 46.0898L221.269 36.0983H226.367L224.333 46.1929C224.23 46.6735 224.178 47.1199 224.178 47.5319C224.178 48.4419 224.41 49.1285 224.874 49.592C225.337 50.0385 226.015 50.2616 226.908 50.2616C227.955 50.2616 228.848 49.9439 229.586 49.3088C230.324 48.6563 230.83 47.6436 231.105 46.2701L233.139 36.0983H238.237ZM249.823 35.7378C252.158 35.7378 253.994 36.33 255.333 37.5146C256.689 38.6992 257.367 40.3386 257.367 42.4331C257.367 43.1713 257.299 43.8752 257.161 44.5448L255.23 54.1243H250.132L250.93 50.1328H243.926L243.128 54.1243H238.107L240.141 43.901C240.673 41.2228 241.764 39.1971 243.411 37.8236C245.077 36.433 247.214 35.7378 249.823 35.7378ZM251.728 46.1929L252.115 44.21C252.218 43.695 252.269 43.2314 252.269 42.8194C252.269 41.8753 252.012 41.1627 251.497 40.682C250.999 40.2014 250.278 39.961 249.334 39.961C248.201 39.961 247.282 40.2787 246.579 40.9138C245.892 41.5489 245.411 42.5705 245.137 43.9782L244.699 46.1929H251.728ZM274.881 41.7636C273.474 40.9566 272.006 40.4159 270.478 40.1413L267.697 54.1243H262.573L265.406 40.0382C263.62 40.2958 262.016 40.8452 260.591 41.6863L259.329 37.9266C260.462 37.2227 261.835 36.6819 263.449 36.3043C265.062 35.9267 266.685 35.7378 268.315 35.7378C269.998 35.7378 271.594 35.9351 273.105 36.33C274.615 36.725 275.946 37.2999 277.096 38.0554L274.881 41.7636ZM286.427 39.7292C285.191 39.7292 284.247 39.9181 283.595 40.2958C282.96 40.6563 282.642 41.1627 282.642 41.8151C282.642 42.6562 283.363 43.0769 284.805 43.0769H289.671L288.899 46.9654H283.208C282.367 46.9654 281.689 47.1286 281.174 47.4547C280.676 47.7637 280.428 48.2015 280.428 48.768C280.428 49.9182 281.672 50.4933 284.161 50.4933C285.243 50.4933 286.29 50.3646 287.303 50.1071C288.332 49.8325 289.225 49.4719 289.98 49.0255L291.165 52.7337C290.221 53.2659 289.053 53.6952 287.663 54.0213C286.273 54.3303 284.848 54.4848 283.389 54.4848C280.831 54.4848 278.831 54.0471 277.389 53.1715C275.947 52.296 275.226 51.077 275.226 49.5148C275.226 48.3473 275.561 47.3517 276.23 46.5276C276.917 45.6865 277.844 45.0684 279.011 44.6735C278.531 44.3645 278.162 43.9696 277.904 43.4889C277.664 42.991 277.544 42.4589 277.544 41.8924C277.544 40.6563 277.921 39.5747 278.677 38.6477C279.432 37.7206 280.505 37.0082 281.895 36.5103C283.286 35.9953 284.908 35.7378 286.762 35.7378C288.084 35.7378 289.302 35.8579 290.418 36.0983C291.551 36.3214 292.495 36.6391 293.251 37.0511L291.603 40.785C290.126 40.0811 288.401 39.7292 286.427 39.7292Z" fill="#78909C"/>
<path d="M145.736 35.3257H154.748L150.937 54.1243H143.985L144.397 52.0127C141.925 53.9012 138.904 54.8454 135.334 54.8454C132.381 54.8454 129.686 54.2102 127.248 52.9397C124.811 51.6351 122.888 49.7981 121.481 47.4289C120.073 45.0254 119.369 42.2442 119.369 39.0854C119.369 34.8966 120.33 31.154 122.253 27.8578C124.176 24.5616 126.871 21.9865 130.338 20.1324C133.806 18.2782 137.788 17.3512 142.286 17.3512C145.753 17.3512 148.826 17.9177 151.504 19.0508C154.216 20.1839 156.379 21.832 157.993 23.9951L150.68 29.7634C149.513 28.3213 148.225 27.3084 146.818 26.7247C145.41 26.1067 143.745 25.7977 141.822 25.7977C139.385 25.7977 137.239 26.3471 135.385 27.4458C133.565 28.5102 132.158 29.9865 131.162 31.875C130.167 33.7635 129.669 35.9094 129.669 38.3129C129.669 40.8536 130.373 42.8623 131.78 44.3387C133.222 45.8152 135.248 46.5534 137.857 46.5534C140.02 46.5534 142.011 45.9353 143.831 44.6993L145.736 35.3257ZM175.607 41.8409C175.607 43.4889 175.169 44.9139 174.293 46.1156C173.418 47.3002 172.191 48.1671 170.611 48.7165L173.675 54.1243H168.345L165.668 49.3345H163.093L162.14 54.1243H157.042L160.646 36.0983H168.345C170.646 36.0983 172.431 36.6047 173.701 37.6176C174.972 38.6306 175.607 40.0382 175.607 41.8409ZM170.457 42.3301C170.457 41.592 170.208 41.0426 169.71 40.682C169.212 40.3044 168.517 40.1155 167.624 40.1155H164.947L163.865 45.3946H166.903C168.036 45.3946 168.912 45.1284 169.53 44.5963C170.148 44.0641 170.457 43.3087 170.457 42.3301ZM187.663 35.7378C189.998 35.7378 191.835 36.33 193.174 37.5146C194.53 38.6992 195.208 40.3386 195.208 42.4331C195.208 43.1713 195.139 43.8752 195.002 44.5448L193.071 54.1243H187.972L188.77 50.1328H181.767L180.968 54.1243H175.947L177.982 43.901C178.514 41.2228 179.604 39.1971 181.252 37.8236C182.917 36.433 185.054 35.7378 187.663 35.7378ZM189.569 46.1929L189.955 44.21C190.058 43.695 190.109 43.2314 190.109 42.8194C190.109 41.8753 189.852 41.1627 189.337 40.682C188.839 40.2014 188.118 39.961 187.174 39.961C186.041 39.961 185.123 40.2787 184.419 40.9138C183.732 41.5489 183.251 42.5705 182.977 43.9782L182.539 46.1929H189.569ZM200.15 36.0983H207.978C209.832 36.0983 211.437 36.4073 212.793 37.0253C214.149 37.6263 215.188 38.5018 215.908 39.652C216.647 40.785 217.016 42.1241 217.016 43.6692C217.016 45.7637 216.535 47.6005 215.574 49.18C214.63 50.7595 213.308 51.9783 211.608 52.8367C209.909 53.6952 207.961 54.1243 205.763 54.1243H196.545L200.15 36.0983ZM205.918 50.0556C207.154 50.0556 208.218 49.7981 209.111 49.283C210.021 48.7509 210.707 48.0299 211.171 47.1199C211.634 46.1929 211.866 45.1457 211.866 43.9782C211.866 42.7593 211.488 41.8237 210.733 41.1713C209.978 40.5018 208.87 40.167 207.411 40.167H204.424L202.467 50.0556H205.918ZM238.237 36.0983L234.632 54.1243H229.689L230.049 52.3732C229.363 53.0598 228.59 53.5835 227.732 53.944C226.873 54.3046 225.964 54.4848 225.002 54.4848C223.148 54.4848 221.689 53.9527 220.625 52.8882C219.561 51.8238 219.029 50.3302 219.029 48.4075C219.029 47.6864 219.106 46.9139 219.26 46.0898L221.269 36.0983H226.367L224.333 46.1929C224.23 46.6735 224.178 47.1199 224.178 47.5319C224.178 48.4419 224.41 49.1285 224.874 49.592C225.337 50.0385 226.015 50.2616 226.908 50.2616C227.955 50.2616 228.848 49.9439 229.586 49.3088C230.324 48.6563 230.83 47.6436 231.105 46.2701L233.139 36.0983H238.237ZM249.823 35.7378C252.158 35.7378 253.994 36.33 255.333 37.5146C256.689 38.6992 257.367 40.3386 257.367 42.4331C257.367 43.1713 257.299 43.8752 257.161 44.5448L255.23 54.1243H250.132L250.93 50.1328H243.926L243.128 54.1243H238.107L240.141 43.901C240.673 41.2228 241.764 39.1971 243.411 37.8236C245.077 36.433 247.214 35.7378 249.823 35.7378ZM251.728 46.1929L252.115 44.21C252.218 43.695 252.269 43.2314 252.269 42.8194C252.269 41.8753 252.012 41.1627 251.497 40.682C250.999 40.2014 250.278 39.961 249.334 39.961C248.201 39.961 247.282 40.2787 246.579 40.9138C245.892 41.5489 245.411 42.5705 245.137 43.9782L244.699 46.1929H251.728ZM274.881 41.7636C273.474 40.9566 272.006 40.4159 270.478 40.1413L267.697 54.1243H262.573L265.406 40.0382C263.62 40.2958 262.016 40.8452 260.591 41.6863L259.329 37.9266C260.462 37.2227 261.835 36.6819 263.449 36.3043C265.062 35.9267 266.685 35.7378 268.315 35.7378C269.998 35.7378 271.594 35.9351 273.105 36.33C274.615 36.725 275.946 37.2999 277.096 38.0554L274.881 41.7636ZM286.427 39.7292C285.191 39.7292 284.247 39.9181 283.595 40.2958C282.96 40.6563 282.642 41.1627 282.642 41.8151C282.642 42.6562 283.363 43.0769 284.805 43.0769H289.671L288.899 46.9654H283.208C282.367 46.9654 281.689 47.1286 281.174 47.4547C280.676 47.7637 280.428 48.2015 280.428 48.768C280.428 49.9182 281.672 50.4933 284.161 50.4933C285.243 50.4933 286.29 50.3646 287.303 50.1071C288.332 49.8325 289.225 49.4719 289.98 49.0255L291.165 52.7337C290.221 53.2659 289.053 53.6952 287.663 54.0213C286.273 54.3303 284.848 54.4848 283.389 54.4848C280.831 54.4848 278.831 54.0471 277.389 53.1715C275.947 52.296 275.226 51.077 275.226 49.5148C275.226 48.3473 275.561 47.3517 276.23 46.5276C276.917 45.6865 277.844 45.0684 279.011 44.6735C278.531 44.3645 278.162 43.9696 277.904 43.4889C277.664 42.991 277.544 42.4589 277.544 41.8924C277.544 40.6563 277.921 39.5747 278.677 38.6477C279.432 37.7206 280.505 37.0082 281.895 36.5103C283.286 35.9953 284.908 35.7378 286.762 35.7378C288.084 35.7378 289.302 35.8579 290.418 36.0983C291.551 36.3214 292.495 36.6391 293.251 37.0511L291.603 40.785C290.126 40.0811 288.401 39.7292 286.427 39.7292Z" fill="#78909C"/>
<mask id="mask0_115_1714" style="mask-type:luminance" maskUnits="userSpaceOnUse" x="124" y="-1" width="34" height="28">
<path d="M157.233 -1H124.845V26.1598H157.233V-1Z" fill="white"/>
</mask>
<g mask="url(#mask0_115_1714)">
<path d="M130.918 10.3165H151.16V17.6723H130.918V10.3165Z" fill="#37474F"/>
<path d="M141.039 14.2773C138.355 14.2773 135.78 14.635 133.882 15.2717C131.984 15.9084 130.918 16.7719 130.918 17.6723C130.918 18.5727 131.984 19.4362 133.882 20.0729C135.78 20.7097 138.355 21.0674 141.039 21.0674C143.723 21.0672 146.298 20.7097 148.196 20.0729C150.094 19.4362 151.16 18.5727 151.16 17.6723C151.16 16.7719 150.094 15.9084 148.196 15.2717C146.298 14.635 143.723 14.2773 141.039 14.2773Z" fill="#37474F"/>
<path d="M140.432 3.63977L125.25 9.24148C124.71 9.46781 124.71 10.0902 125.25 10.3165L140.432 15.9182C140.837 16.0314 141.241 16.0314 141.646 15.9182L156.828 10.3165C157.368 10.0902 157.368 9.46781 156.828 9.24148L141.646 3.63977C141.241 3.47001 140.837 3.47001 140.432 3.63977Z" fill="#78909C"/>
<path d="M153.994 10.5429L140.499 8.61908C140.161 8.5625 139.757 8.78884 139.689 9.07174C139.622 9.35466 139.892 9.69416 140.229 9.75073L153.184 11.5614V19.9356C153.184 20.2752 153.454 20.5015 153.859 20.5015C154.263 20.5015 154.533 20.2752 154.533 19.9356V11.1087C154.533 10.8258 154.263 10.5995 153.994 10.5429Z" fill="#37474F"/>
<path d="M153.859 18.804C153.501 18.804 153.158 18.9232 152.905 19.1354C152.652 19.3477 152.51 19.6355 152.51 19.9355C152.51 20.2357 152.652 20.5236 152.905 20.7358C153.158 20.9481 153.501 21.0674 153.859 21.0674C154.217 21.0674 154.56 20.9481 154.813 20.7358C155.066 20.5236 155.209 20.2357 155.209 19.9355C155.209 19.6355 155.066 19.3477 154.813 19.1354C154.56 18.9232 154.217 18.804 153.859 18.804Z" fill="#37474F"/>
<path d="M155.883 21.6331C155.883 22.595 153.859 25.0281 153.859 25.0281C153.859 25.0281 151.835 22.595 151.835 21.6331C151.835 20.6713 152.712 19.9355 153.859 19.9355C155.006 19.9355 155.883 20.6713 155.883 21.6331Z" fill="#37474F"/>
</g>
</g>
<defs>
<clipPath id="clip0_115_1714">
<rect width="420" height="66" fill="white"/>
</clipPath>
</defs>
</svg>
