<svg width="24" height="25" viewBox="0 0 24 25" fill="none" xmlns="http://www.w3.org/2000/svg">
<path fill-rule="evenodd" clip-rule="evenodd" d="M17.0002 4.5H19.0002C19.5502 4.5 20.0002 4.95 20.0002 5.5V19.5C20.0002 20.05 19.5502 20.5 19.0002 20.5H17.0002C16.4502 20.5 16.0002 20.05 16.0002 19.5C16.0002 18.95 16.4502 18.5 17.0002 18.5H18.0002V6.5H17.0002C16.4502 6.5 16.0002 6.05 16.0002 5.5C16.0002 4.95 16.4502 4.5 17.0002 4.5ZM10.4 7.7004C10.844 7.3694 11.469 7.4594 11.8 7.9004L14.8 11.9004C15.06 12.2464 15.068 12.7204 14.818 13.0754L12.004 17.0754C11.809 17.3524 11.5 17.5004 11.185 17.5004C10.987 17.5004 10.786 17.4414 10.611 17.3184C10.159 17.0004 10.05 16.3764 10.368 15.9244L12.086 13.4824C12.0725 13.4837 12.0599 13.4875 12.0473 13.4913C12.0318 13.4958 12.0165 13.5004 12 13.5004H4C3.448 13.5004 3 13.0524 3 12.5004C3 11.9474 3.448 11.5004 4 11.5004H12H12.001L10.2 9.0994C9.869 8.6584 9.958 8.0314 10.4 7.7004Z" fill="white"/>
<mask id="mask0_7_2573" style="mask-type:luminance" maskUnits="userSpaceOnUse" x="3" y="4" width="17" height="17">
<path fill-rule="evenodd" clip-rule="evenodd" d="M17.0002 4.5H19.0002C19.5502 4.5 20.0002 4.95 20.0002 5.5V19.5C20.0002 20.05 19.5502 20.5 19.0002 20.5H17.0002C16.4502 20.5 16.0002 20.05 16.0002 19.5C16.0002 18.95 16.4502 18.5 17.0002 18.5H18.0002V6.5H17.0002C16.4502 6.5 16.0002 6.05 16.0002 5.5C16.0002 4.95 16.4502 4.5 17.0002 4.5ZM10.4 7.7004C10.844 7.3694 11.469 7.4594 11.8 7.9004L14.8 11.9004C15.06 12.2464 15.068 12.7204 14.818 13.0754L12.004 17.0754C11.809 17.3524 11.5 17.5004 11.185 17.5004C10.987 17.5004 10.786 17.4414 10.611 17.3184C10.159 17.0004 10.05 16.3764 10.368 15.9244L12.086 13.4824C12.0725 13.4837 12.0599 13.4875 12.0473 13.4913C12.0318 13.4958 12.0165 13.5004 12 13.5004H4C3.448 13.5004 3 13.0524 3 12.5004C3 11.9474 3.448 11.5004 4 11.5004H12H12.001L10.2 9.0994C9.869 8.6584 9.958 8.0314 10.4 7.7004Z" fill="white"/>
</mask>
<g mask="url(#mask0_7_2573)">
<rect y="0.5" width="24" height="24" fill="white"/>
</g>
</svg>
