<svg width="24" height="24" viewBox="0 0 24 24" fill="none" xmlns="http://www.w3.org/2000/svg">
<path fill-rule="evenodd" clip-rule="evenodd" d="M7.00004 20L5.00004 20C4.45004 20 4.00004 19.55 4.00004 19L4.00004 5C4.00004 4.45 4.45004 4 5.00004 4H7.00004C7.55004 4 8.00004 4.45 8.00004 5C8.00004 5.55 7.55004 6 7.00004 6H6.00004L6.00004 18H7.00004C7.55004 18 8.00004 18.45 8.00004 19C8.00004 19.55 7.55004 20 7.00004 20ZM13.6002 16.7996C13.1562 17.1306 12.5312 17.0406 12.2002 16.5996L9.20024 12.5996C8.94024 12.2536 8.93224 11.7796 9.18224 11.4246L11.9962 7.4246C12.1912 7.1476 12.5002 6.9996 12.8152 6.9996C13.0132 6.9996 13.2142 7.0586 13.3892 7.1816C13.8412 7.4996 13.9502 8.1236 13.6322 8.5756L11.9142 11.0176C11.9277 11.0163 11.9404 11.0125 11.953 11.0087C11.9684 11.0042 11.9837 10.9996 12.0002 10.9996L20.0002 10.9996C20.5522 10.9996 21.0002 11.4476 21.0002 11.9996C21.0002 12.5526 20.5522 12.9996 20.0002 12.9996H12.0002H11.9992L13.8002 15.4006C14.1312 15.8416 14.0422 16.4686 13.6002 16.7996Z" fill="white"/>
<mask id="mask0_240_6904" style="mask-type:luminance" maskUnits="userSpaceOnUse" x="4" y="4" width="18" height="16">
<path fill-rule="evenodd" clip-rule="evenodd" d="M7.00004 20L5.00004 20C4.45004 20 4.00004 19.55 4.00004 19L4.00004 5C4.00004 4.45 4.45004 4 5.00004 4H7.00004C7.55004 4 8.00004 4.45 8.00004 5C8.00004 5.55 7.55004 6 7.00004 6H6.00004L6.00004 18H7.00004C7.55004 18 8.00004 18.45 8.00004 19C8.00004 19.55 7.55004 20 7.00004 20ZM13.6002 16.7996C13.1562 17.1306 12.5312 17.0406 12.2002 16.5996L9.20024 12.5996C8.94024 12.2536 8.93224 11.7796 9.18224 11.4246L11.9962 7.4246C12.1912 7.1476 12.5002 6.9996 12.8152 6.9996C13.0132 6.9996 13.2142 7.0586 13.3892 7.1816C13.8412 7.4996 13.9502 8.1236 13.6322 8.5756L11.9142 11.0176C11.9277 11.0163 11.9404 11.0125 11.953 11.0087C11.9684 11.0042 11.9837 10.9996 12.0002 10.9996L20.0002 10.9996C20.5522 10.9996 21.0002 11.4476 21.0002 11.9996C21.0002 12.5526 20.5522 12.9996 20.0002 12.9996H12.0002H11.9992L13.8002 15.4006C14.1312 15.8416 14.0422 16.4686 13.6002 16.7996Z" fill="white"/>
</mask>
<g mask="url(#mask0_240_6904)">
<rect x="24" y="24" width="24" height="24" transform="rotate(180 24 24)" fill="white"/>
</g>
</svg>
