<svg width="21" height="19" viewBox="0 0 21 19" fill="none" xmlns="http://www.w3.org/2000/svg">
<path fill-rule="evenodd" clip-rule="evenodd" d="M9.5 16.5C8.948 16.5 8.5 16.052 8.5 15.5C8.5 14.948 8.948 14.5 9.5 14.5C10.052 14.5 10.5 14.948 10.5 15.5C10.5 16.052 10.052 16.5 9.5 16.5ZM19.5 14.5H12.315C11.901 13.339 10.802 12.5 9.5 12.5C8.198 12.5 7.099 13.339 6.685 14.5H1.5C0.947 14.5 0.5 14.947 0.5 15.5C0.5 16.053 0.947 16.5 1.5 16.5H6.685C7.099 17.661 8.198 18.5 9.5 18.5C10.802 18.5 11.901 17.661 12.315 16.5H19.5C20.053 16.5 20.5 16.053 20.5 15.5C20.5 14.947 20.053 14.5 19.5 14.5ZM17.5 10.5C16.948 10.5 16.5 10.052 16.5 9.5C16.5 8.948 16.948 8.5 17.5 8.5C18.052 8.5 18.5 8.948 18.5 9.5C18.5 10.052 18.052 10.5 17.5 10.5ZM17.5 6.5C16.198 6.5 15.099 7.339 14.685 8.5H1.5C0.947 8.5 0.5 8.947 0.5 9.5C0.5 10.053 0.947 10.5 1.5 10.5H14.685C15.099 11.661 16.198 12.5 17.5 12.5C19.154 12.5 20.5 11.154 20.5 9.5C20.5 7.846 19.154 6.5 17.5 6.5ZM5.5 2.5C6.052 2.5 6.5 2.948 6.5 3.5C6.5 4.052 6.052 4.5 5.5 4.5C4.948 4.5 4.5 4.052 4.5 3.5C4.5 2.948 4.948 2.5 5.5 2.5ZM1.5 4.5H2.685C3.099 5.661 4.198 6.5 5.5 6.5C6.802 6.5 7.901 5.661 8.315 4.5H19.5C20.053 4.5 20.5 4.053 20.5 3.5C20.5 2.947 20.053 2.5 19.5 2.5H8.315C7.901 1.339 6.802 0.5 5.5 0.5C4.198 0.5 3.099 1.339 2.685 2.5H1.5C0.947 2.5 0.5 2.947 0.5 3.5C0.5 4.053 0.947 4.5 1.5 4.5Z" fill="#4E9FFF"/>
</svg>
