<svg width="17" height="17" viewBox="0 0 17 17" fill="none" xmlns="http://www.w3.org/2000/svg">
<path fill-rule="evenodd" clip-rule="evenodd" d="M14 0.5H16C16.55 0.5 17 0.95 17 1.5V15.5C17 16.05 16.55 16.5 16 16.5H14C13.45 16.5 13 16.05 13 15.5C13 14.95 13.45 14.5 14 14.5H15V2.5H14C13.45 2.5 13 2.05 13 1.5C13 0.95 13.45 0.5 14 0.5ZM7.39979 3.7004C7.84379 3.3694 8.46879 3.4594 8.79979 3.9004L11.7998 7.9004C12.0598 8.2464 12.0678 8.7204 11.8178 9.0754L9.00379 13.0754C8.80879 13.3524 8.49979 13.5004 8.18479 13.5004C7.98679 13.5004 7.78579 13.4414 7.61079 13.3184C7.15879 13.0004 7.04979 12.3764 7.36779 11.9244L9.08579 9.4824C9.07232 9.48375 9.05966 9.48751 9.04708 9.49125C9.03163 9.49585 9.01632 9.5004 8.99979 9.5004H0.999786C0.447786 9.5004 -0.000213623 9.0524 -0.000213623 8.5004C-0.000213623 7.9474 0.447786 7.5004 0.999786 7.5004H8.99979H9.00079L7.19979 5.0994C6.86879 4.6584 6.95779 4.0314 7.39979 3.7004Z" fill="white"/>
</svg>
